<svg width="423" height="858" viewBox="0 0 423 858" fill="none" xmlns="http://www.w3.org/2000/svg">
<g clip-path="url(#clip0_348_1)">
<path d="M420 240H421.5C422.328 240 423 240.672 423 241.5V331.5C423 332.328 422.328 333 421.5 333H420V240Z" fill="#213744"/>
<path d="M3 353L1.49999 353C0.671567 353 -5.1865e-06 352.328 -5.11407e-06 351.5L-2.18399e-07 295.5C-1.45976e-07 294.672 0.671573 294 1.5 294L3.00001 294L3 353Z" fill="#213744"/>
<path d="M3 278L1.49999 278C0.671567 278 -5.1865e-06 277.328 -5.11407e-06 276.5L-2.18399e-07 220.5C-1.45976e-07 219.672 0.671573 219 1.5 219L3.00001 219L3 278Z" fill="#213744"/>
<path d="M3 193L1.5 193C0.671571 193 -2.32548e-06 192.328 -2.25305e-06 191.5L-6.7482e-08 166.5C4.94129e-09 165.672 0.671573 165 1.5 165L3 165L3 193Z" fill="#213744"/>
<path d="M3 91C3 66.8033 3 54.705 6.18133 44.9139C12.611 25.1254 28.1254 9.61099 47.9139 3.18133C57.705 0 69.8033 0 94 0H329C353.197 0 365.295 0 375.086 3.18133C394.875 9.61099 410.389 25.1254 416.819 44.9139C420 54.705 420 66.8033 420 91V767C420 791.197 420 803.295 416.819 813.086C410.389 832.875 394.875 848.389 375.086 854.819C365.295 858 353.197 858 329 858H94C69.8033 858 57.705 858 47.9139 854.819C28.1254 848.389 12.611 832.875 6.18133 813.086C3 803.295 3 791.197 3 767V91Z" fill="#213744"/>
<path fill-rule="evenodd" clip-rule="evenodd" d="M329.4 2H93.6C69.6978 2 57.9838 2.01234 48.5319 5.08344C29.3523 11.3153 14.3153 26.3523 8.08344 45.5319C5.01234 54.9838 5 66.6978 5 90.6V767.4C5 791.302 5.01234 803.016 8.08344 812.468C14.3153 831.648 29.3523 846.685 48.5319 852.917C57.9838 855.988 69.6978 856 93.6 856H329.4C353.302 856 365.016 855.988 374.468 852.917C393.648 846.685 408.685 831.648 414.917 812.468C417.988 803.016 418 791.302 418 767.4V90.6C418 66.6978 417.988 54.9838 414.917 45.5319C408.685 26.3523 393.648 11.3153 374.468 5.08344C365.016 2.01234 353.302 2 329.4 2ZM7.13238 45.2229C4 54.8634 4 66.7756 4 90.6V767.4C4 791.224 4 803.137 7.13238 812.777C13.4631 832.261 28.7389 847.537 48.2229 853.868C57.8634 857 69.7756 857 93.6 857H329.4C353.224 857 365.137 857 374.777 853.868C394.261 847.537 409.537 832.261 415.868 812.777C419 803.137 419 791.224 419 767.4V90.6C419 66.7756 419 54.8634 415.868 45.2229C409.537 25.7389 394.261 10.4631 374.777 4.13238C365.137 1 353.224 1 329.4 1H93.6C69.7756 1 57.8634 1 48.2229 4.13238C28.7389 10.4631 13.4631 25.7389 7.13238 45.2229Z" fill="#8EADC1"/>
<path d="M8 89C8 66.6646 8 55.4969 10.9366 46.459C16.8717 28.1927 31.1927 13.8717 49.459 7.93661C58.4969 5 69.6646 5 92 5H331C353.335 5 364.503 5 373.541 7.93661C391.807 13.8717 406.128 28.1927 412.063 46.459C415 55.4969 415 66.6646 415 89V769C415 791.335 415 802.503 412.063 811.541C406.128 829.807 391.807 844.128 373.541 850.063C364.503 853 353.335 853 331 853H92C69.6646 853 58.4969 853 49.459 850.063C31.1927 844.128 16.8717 829.807 10.9366 811.541C8 802.503 8 791.335 8 769V89Z" fill="#121515"/>
<path d="M331 0H337V5H331V0Z" fill="#36454C"/>
<path d="M415 86H420V92H415V86Z" fill="#36454C"/>
<path d="M3 86H8V92H3V86Z" fill="#36454C"/>
<path d="M3 766H8V772H3V766Z" fill="#36454C"/>
<path d="M415 766H420V772H415V766Z" fill="#36454C"/>
<path d="M86 853H92V858H86V853Z" fill="#36454C"/>
<path fill-rule="evenodd" clip-rule="evenodd" d="M250 37C253.866 37 257 33.866 257 30C257 26.134 253.866 23 250 23C246.134 23 243 26.134 243 30C243 33.866 246.134 37 250 37Z" fill="#262C2D"/>
<path fill-rule="evenodd" clip-rule="evenodd" d="M250 34.375C252.416 34.375 254.375 32.4162 254.375 30C254.375 27.5838 252.416 25.625 250 25.625C247.584 25.625 245.625 27.5838 245.625 30C245.625 32.4162 247.584 34.375 250 34.375Z" fill="#121515"/>
<path opacity="0.4" fill-rule="evenodd" clip-rule="evenodd" d="M250 29.125C250.483 29.125 250.875 28.7332 250.875 28.25C250.875 27.7668 250.483 27.375 250 27.375C249.517 27.375 249.125 27.7668 249.125 28.25C249.125 28.7332 249.517 29.125 250 29.125Z" fill="#636F73"/>
<path fill-rule="evenodd" clip-rule="evenodd" d="M190 30C190 28.3431 191.343 27 193 27H230C231.657 27 233 28.3431 233 30C233 31.6569 231.657 33 230 33H193C191.343 33 190 31.6569 190 30Z" fill="#262C2D"/>
</g>
<defs>
<clipPath id="clip0_348_1">
<rect width="423" height="858" fill="white"/>
</clipPath>
</defs>
</svg>
