<svg width="1080" height="624" viewBox="0 0 1080 624" fill="none" xmlns="http://www.w3.org/2000/svg">
<path d="M971.717 610C984.124 610 1062.95 624 1031.75 624H46.2517C15.0503 624 93.8758 610 106.283 610H971.717Z" fill="url(#paint0_linear_2_107)"/>
<path d="M973.803 616C1038.72 616 1071.32 605.333 1080 600H0C8.68277 605.333 41.2764 616 106.197 616H973.803Z" fill="url(#paint1_linear_2_107)"/>
<path d="M463 583H0V600H1080V583H617C617 589.627 611.627 595 605 595H475C468.373 595 463 589.627 463 583Z" fill="url(#paint2_linear_2_107)"/>
<path d="M463 583H617C617 589.627 611.627 595 605 595H475C468.373 595 463 589.627 463 583Z" fill="url(#paint3_linear_2_107)"/>
<path fill-rule="evenodd" clip-rule="evenodd" d="M952 2H129C115.745 2 105 12.7452 105 26V581H976V26C976 12.7452 965.255 2 952 2ZM129 0C114.641 0 103 11.6406 103 26V583H978V26C978 11.6406 966.359 0 952 0H129Z" fill="#585858"/>
<path d="M103 26C103 11.6406 114.641 0 129 0H952C966.359 0 978 11.6406 978 26V583H103V26Z" fill="black"/>
<path d="M103 567H978V576C978 579.866 974.866 583 971 583H110C106.134 583 103 579.866 103 576V567Z" fill="#1B1B1B"/>
<path d="M515.036 579V570.545H513.806L510.874 577.658H510.827L507.896 570.545H506.666V579H507.654V572.484H507.696L510.403 579H511.298L514.006 572.484H514.047V579H515.036Z" fill="#AAABAF"/>
<path d="M518.138 579.105C518.962 579.105 519.739 578.648 520.104 577.951H520.128V579H521.099V574.787C521.099 573.574 520.192 572.801 518.756 572.801C517.308 572.801 516.402 573.609 516.331 574.664H517.32C517.449 574.066 517.944 573.697 518.732 573.697C519.58 573.697 520.075 574.143 520.075 574.887V575.396L518.32 575.496C516.908 575.578 516.101 576.234 516.101 577.277C516.101 578.373 516.919 579.105 518.138 579.105ZM518.368 578.238C517.632 578.238 517.143 577.857 517.143 577.277C517.143 576.703 517.614 576.34 518.438 576.287L520.075 576.188V576.686C520.075 577.564 519.333 578.238 518.368 578.238Z" fill="#AAABAF"/>
<path d="M527.485 574.904C527.356 573.809 526.444 572.801 524.913 572.801C523.224 572.801 522.099 574.031 522.099 575.953C522.099 577.916 523.23 579.105 524.925 579.105C526.314 579.105 527.338 578.25 527.497 577.037H526.491C526.314 577.77 525.767 578.209 524.931 578.209C523.871 578.209 523.141 577.371 523.141 575.953C523.141 574.57 523.859 573.697 524.919 573.697C525.82 573.697 526.338 574.242 526.485 574.904H527.485Z" fill="#AAABAF"/>
<path d="M531.806 579C533.613 579 534.684 578.115 534.684 576.627C534.684 575.502 533.943 574.693 532.789 574.547V574.5C533.607 574.354 534.255 573.533 534.255 572.654C534.255 571.389 533.272 570.545 531.818 570.545H528.598V579H531.806ZM529.657 571.477H531.576C532.606 571.477 533.183 571.939 533.183 572.777C533.183 573.691 532.5 574.189 531.247 574.189H529.657V571.477ZM529.657 578.068V575.098H531.547C532.901 575.098 533.595 575.596 533.595 576.574C533.595 577.553 532.924 578.068 531.647 578.068H529.657Z" fill="#AAABAF"/>
<path d="M538.263 579.105C539.953 579.105 541.094 577.893 541.094 575.953C541.094 574.008 539.953 572.801 538.263 572.801C536.568 572.801 535.426 574.008 535.426 575.953C535.426 577.893 536.568 579.105 538.263 579.105ZM538.263 578.209C537.18 578.209 536.468 577.389 536.468 575.953C536.468 574.518 537.18 573.697 538.263 573.697C539.346 573.697 540.053 574.518 540.053 575.953C540.053 577.389 539.346 578.209 538.263 578.209Z" fill="#AAABAF"/>
<path d="M544.667 579.105C546.357 579.105 547.499 577.893 547.499 575.953C547.499 574.008 546.357 572.801 544.667 572.801C542.972 572.801 541.83 574.008 541.83 575.953C541.83 577.893 542.972 579.105 544.667 579.105ZM544.667 578.209C543.584 578.209 542.872 577.389 542.872 575.953C542.872 574.518 543.584 573.697 544.667 573.697C545.751 573.697 546.457 574.518 546.457 575.953C546.457 577.389 545.751 578.209 544.667 578.209Z" fill="#AAABAF"/>
<path d="M549.612 576.703L550.183 576.164L552.455 579H553.644L550.907 575.537L553.562 572.906H552.32L549.612 575.613V570.545H548.588V579H549.612V576.703Z" fill="#AAABAF"/>
<path d="M557.017 570.545V579H558.076V575.982H560.037C561.632 575.982 562.768 574.863 562.768 573.258C562.768 571.658 561.643 570.545 560.048 570.545H557.017ZM558.076 571.482H559.772C560.99 571.482 561.679 572.139 561.679 573.258C561.679 574.383 560.984 575.045 559.772 575.045H558.076V571.482Z" fill="#AAABAF"/>
<path d="M563.827 579H564.852V575.203C564.852 574.342 565.369 573.773 566.164 573.773C566.411 573.773 566.629 573.803 566.712 573.832V572.842C566.629 572.83 566.476 572.801 566.3 572.801C565.581 572.801 565.016 573.229 564.816 573.902H564.793V572.906H563.827V579Z" fill="#AAABAF"/>
<path d="M569.79 579.105C571.479 579.105 572.621 577.893 572.621 575.953C572.621 574.008 571.479 572.801 569.79 572.801C568.095 572.801 566.953 574.008 566.953 575.953C566.953 577.893 568.095 579.105 569.79 579.105ZM569.79 578.209C568.707 578.209 567.995 577.389 567.995 575.953C567.995 574.518 568.707 573.697 569.79 573.697C570.873 573.697 571.58 574.518 571.58 575.953C571.58 577.389 570.873 578.209 569.79 578.209Z" fill="#AAABAF"/>
<circle cx="540" cy="20" r="2.9" fill="#0F0F0F" stroke="#151515" stroke-width="0.2"/>
<circle cx="539.7" cy="20.7" r="0.7" fill="#16181E"/>
<circle cx="539.7" cy="19.7" r="0.7" fill="#0A0B0D"/>
<circle opacity="0.6" cx="540" cy="20" r="1" fill="#1F2531"/>
<defs>
<linearGradient id="paint0_linear_2_107" x1="539" y1="624" x2="539" y2="610" gradientUnits="userSpaceOnUse">
<stop stop-color="#9B9EA0" stop-opacity="0"/>
<stop offset="1" stop-color="#1B1D1E"/>
</linearGradient>
<linearGradient id="paint1_linear_2_107" x1="540" y1="600" x2="540" y2="616" gradientUnits="userSpaceOnUse">
<stop stop-color="#9B9EA0"/>
<stop offset="0.285062" stop-color="#6D6F72"/>
<stop offset="0.729154" stop-color="#2F3234"/>
<stop offset="1" stop-color="#16181A"/>
</linearGradient>
<linearGradient id="paint2_linear_2_107" x1="-1.08823e-06" y1="591.999" x2="1080" y2="591.999" gradientUnits="userSpaceOnUse">
<stop stop-color="#35373A"/>
<stop offset="0.00490282" stop-color="#5F6264"/>
<stop offset="0.00852359" stop-color="#888B8D"/>
<stop offset="0.0155831" stop-color="#A7AAAC"/>
<stop offset="0.0216403" stop-color="#BDBFC1"/>
<stop offset="0.0286293" stop-color="#979A9C"/>
<stop offset="0.0342205" stop-color="#808486"/>
<stop offset="0.0494072" stop-color="#4D4F52"/>
<stop offset="0.0716747" stop-color="#7C7F81"/>
<stop offset="0.140001" stop-color="#CBCED0"/>
<stop offset="0.927239" stop-color="#ABAEB0"/>
<stop offset="0.952628" stop-color="#525556"/>
<stop offset="0.971596" stop-color="#8E9193"/>
<stop offset="0.980101" stop-color="#B0B3B5"/>
<stop offset="0.992591" stop-color="#AEB1B3"/>
<stop offset="1" stop-color="#323638"/>
</linearGradient>
<linearGradient id="paint3_linear_2_107" x1="463" y1="589" x2="617" y2="589" gradientUnits="userSpaceOnUse">
<stop offset="0.0001" stop-color="#525558"/>
<stop offset="0.00378342" stop-color="#1D1D1D"/>
<stop offset="0.0456976" stop-color="#6D7073"/>
<stop offset="0.180304" stop-color="#AEB1B3"/>
<stop offset="0.46803" stop-color="#AEB1B3"/>
<stop offset="0.82883" stop-color="#AEB1B3"/>
<stop offset="0.95374" stop-color="#6B6E71"/>
<stop offset="1" stop-color="#1D1D1D"/>
</linearGradient>
</defs>
</svg>
