<svg width="421" height="858" viewBox="0 0 421 858" fill="none" xmlns="http://www.w3.org/2000/svg">
<g clip-path="url(#clip0_284_941)">
<path d="M0 55C0 24.6244 24.6243 0 55 0H363C393.376 0 418 24.6243 418 55V803C418 833.376 393.376 858 363 858H55C24.6243 858 0 833.376 0 803V55Z" fill="#3A4245"/>
<path d="M4 55C4 26.8335 26.8335 4 55 4H363C391.167 4 414 26.8335 414 55V803C414 831.167 391.167 854 363 854H55C26.8335 854 4 831.167 4 803V55Z" fill="#121515"/>
<path d="M418 324H419C420.105 324 421 325.481 421 327.308L421 438.692C421 440.519 420.105 442 419 442H418L418 324Z" fill="#121515"/>
<path d="M418 205H419C420.105 205 421 206.481 421 208.308L421 260.692C421 262.519 420.105 264 419 264H418L418 205Z" fill="#121515"/>
<circle cx="47.5" cy="48.5" r="13.5" fill="#121515"/>
<path fill-rule="evenodd" clip-rule="evenodd" d="M47.5 58C52.7467 58 57 53.7467 57 48.5C57 43.2533 52.7467 39 47.5 39C42.2533 39 38 43.2533 38 48.5C38 53.7467 42.2533 58 47.5 58Z" fill="#262C2D"/>
<path fill-rule="evenodd" clip-rule="evenodd" d="M47.5 54.4375C50.7792 54.4375 53.4375 51.7792 53.4375 48.5C53.4375 45.2208 50.7792 42.5625 47.5 42.5625C44.2208 42.5625 41.5625 45.2208 41.5625 48.5C41.5625 51.7792 44.2208 54.4375 47.5 54.4375Z" fill="#121515"/>
<path opacity="0.4" fill-rule="evenodd" clip-rule="evenodd" d="M47.5 47.3125C48.1558 47.3125 48.6875 46.7808 48.6875 46.125C48.6875 45.4692 48.1558 44.9375 47.5 44.9375C46.8442 44.9375 46.3125 45.4692 46.3125 46.125C46.3125 46.7808 46.8442 47.3125 47.5 47.3125Z" fill="#636F73"/>
</g>
<defs>
<clipPath id="clip0_284_941">
<rect width="421" height="858" fill="white"/>
</clipPath>
</defs>
</svg>
