<svg width="657" height="908" viewBox="0 0 657 908" fill="none" xmlns="http://www.w3.org/2000/svg">
<g filter="url(#filter0_dd_61_482)">
<path d="M4 48C4 22.5949 24.5949 2 50 2H607C632.405 2 653 22.5949 653 48V856C653 881.405 632.405 902 607 902H50C24.5949 902 4 881.405 4 856V48Z" fill="#3A4245"/>
</g>
<path d="M8 48C8 24.8041 26.804 6 50 6H607C630.196 6 649 24.804 649 48V856C649 879.196 630.196 898 607 898H50C26.804 898 8 879.196 8 856V48Z" fill="#121515"/>
<path fill-rule="evenodd" clip-rule="evenodd" d="M653 73C654.105 73 655 73.3403 655 73.76V110.24C655 110.66 654.105 111 653 111V73Z" fill="#121515"/>
<path fill-rule="evenodd" clip-rule="evenodd" d="M653 116C654.105 116 655 116.34 655 116.76V153.24C655 153.66 654.105 154 653 154V116Z" fill="#121515"/>
<path fill-rule="evenodd" clip-rule="evenodd" d="M563 2C563 0.895431 563.403 -1.76132e-08 563.9 -3.93402e-08L607.1 -1.92767e-06C607.597 -1.9494e-06 608 0.895429 608 2L563 2Z" fill="#121515"/>
<defs>
<filter id="filter0_dd_61_482" x="0" y="0" width="657" height="908" filterUnits="userSpaceOnUse" color-interpolation-filters="sRGB">
<feFlood flood-opacity="0" result="BackgroundImageFix"/>
<feColorMatrix in="SourceAlpha" type="matrix" values="0 0 0 0 0 0 0 0 0 0 0 0 0 0 0 0 0 0 127 0" result="hardAlpha"/>
<feOffset/>
<feGaussianBlur stdDeviation="1"/>
<feColorMatrix type="matrix" values="0 0 0 0 0 0 0 0 0 0.0823529 0 0 0 0 0.25098 0 0 0 0.14 0"/>
<feBlend mode="normal" in2="BackgroundImageFix" result="effect1_dropShadow_61_482"/>
<feColorMatrix in="SourceAlpha" type="matrix" values="0 0 0 0 0 0 0 0 0 0 0 0 0 0 0 0 0 0 127 0" result="hardAlpha"/>
<feOffset dy="2"/>
<feGaussianBlur stdDeviation="2"/>
<feColorMatrix type="matrix" values="0 0 0 0 0 0 0 0 0 0.0823529 0 0 0 0 0.25098 0 0 0 0.05 0"/>
<feBlend mode="normal" in2="effect1_dropShadow_61_482" result="effect2_dropShadow_61_482"/>
<feBlend mode="normal" in="SourceGraphic" in2="effect2_dropShadow_61_482" result="shape"/>
</filter>
</defs>
</svg>
